<svg width="479" height="215" viewBox="0 0 479 215" fill="none" xmlns="http://www.w3.org/2000/svg">
<path d="M115.168 10.1556C115.854 10.102 116.276 10.9055 115.801 11.4411C114.746 12.5659 113.743 14.2264 114.007 16.2082C114.271 18.0293 115.326 19.2613 116.381 20.0112C116.909 20.3861 116.698 21.2431 116.117 21.3502C114.904 21.618 113.585 22.2072 112.794 23.4927C112.214 24.4033 111.95 25.4746 111.792 26.3851C111.686 27.0279 110.842 27.2421 110.473 26.7065C109.418 25.2603 107.782 23.5999 106.094 23.5999C104.353 23.5999 102.823 24.564 101.821 25.3139C101.399 25.6888 100.713 25.421 100.608 24.8318C100.449 23.5999 99.8162 21.8859 97.9698 21.0289C96.8619 20.4932 95.6485 20.2254 94.6462 20.1183C94.0131 20.0647 93.7494 19.2077 94.2769 18.7792C95.5431 17.708 97.0201 16.0475 97.2311 13.9586C97.3894 12.2981 97.0729 10.6912 96.6509 9.40574C96.4399 8.76298 97.1257 8.17379 97.706 8.49516C98.9721 9.19148 100.66 9.78066 102.401 9.19147C104.511 8.49516 105.936 6.88827 106.78 5.70989C107.096 5.22783 107.888 5.33495 108.099 5.87058C108.573 7.20964 109.47 8.97723 110.895 9.67355C111.897 10.2627 113.691 10.2627 115.168 10.1556Z" fill="#FFB600"/>
<path d="M464.851 36.7745C466.921 36.8404 467.456 39.5434 465.585 40.4005C458.572 43.5649 448.887 49.4984 442.074 60.3103C435.929 70.0016 422.837 57.1458 434.994 46.8613C445.547 37.9612 454.097 36.4448 464.851 36.7745Z" fill="#FFB600"/>
<path d="M89.6054 173.984C76.4192 174.586 35.7855 175.64 6.83321 175.188C-7.5713 174.963 3.46499 184.296 15.4329 183.845C27.3292 183.393 59.0764 183.468 55.9232 187.081C52.77 190.694 38.2938 188.286 37.6488 191.748C37.0038 195.211 45.1021 195.813 57.2134 196.189C68.9663 196.565 84.159 197.469 87.5272 194.684C91.8987 191.071 82.2957 188.812 74.9859 188.511C68.7512 188.21 71.761 183.092 89.6771 182.264C102.433 181.586 102.863 173.307 89.6054 173.984Z" fill="#FFB600"/>
<path d="M22.8308 44.769C21.6684 40.4271 27.9031 38.2031 31.3902 41.6979C35.8283 46.1457 41.6401 50.8054 48.72 53.6648C59.604 58.0067 58.1247 71.0327 47.2407 68.9146C36.3567 66.7966 27.7973 56.736 23.8875 47.7343C23.4648 46.7812 23.0421 45.7221 22.8308 44.769Z" fill="#FFB600"/>
<path d="M402.668 160.193C390.674 171.707 395.671 179.906 402.668 177.987C409.664 176.068 426.156 165.775 423.157 158.972C420.159 152.168 409.831 153.564 402.668 160.193Z" fill="#FFB600"/>
<path d="M359.866 70.0326C357.963 70.4274 357.476 68.0895 359.196 66.6664C364.622 62.0605 372.579 54.1234 376.801 44.5931C381.141 34.8352 393.504 33.5795 391.28 42.8771C389.056 52.1748 379.441 61.0691 370.898 65.9971C367.369 67.9772 363.22 69.255 359.866 70.0326Z" fill="white"/>
<path d="M404.56 26.4698C401.725 29.8799 399.21 28.353 397.335 26.5207C395.46 24.6884 395.277 21.0238 397.289 18.479C399.301 15.9341 402.776 15.476 404.651 17.3592C406.571 19.1915 406.617 23.9758 404.56 26.4698Z" fill="white"/>
<path d="M276.537 173.59C258.395 175.611 202.638 180.917 163.1 183.231C143.392 184.426 158.326 193.858 174.754 192.134C191.182 190.41 234.603 187.382 230.293 191.725C225.982 196.067 206.098 194.877 205.113 198.803C204.129 202.729 215.239 202.681 231.96 201.791C248.111 201.03 268.919 200.61 273.523 197.103C279.554 192.548 266.477 191.028 256.428 191.34C247.882 191.628 252.176 185.488 276.639 182.83C293.982 180.953 294.564 171.577 276.537 173.59Z" fill="white"/>
<path d="M403.934 98.0798C401.02 99.5572 402.747 102.584 406.426 102.397C418.418 101.652 436.979 101.78 452.132 107.379C467.777 113.134 485.398 101.801 473.069 94.3469C460.739 86.8928 438.913 87.5373 422.6 91.0908C415.961 92.5666 409.131 95.5163 403.934 98.0798Z" fill="white"/>
<path d="M219.463 47.493C219.463 47.493 185.384 17.3684 166.092 22.9611C146.736 28.5539 154.098 48.3828 165.331 57.7252C176.563 67.0677 181.577 70.436 181.577 70.436C181.577 70.436 154.098 65.161 140.962 71.9613C127.825 78.7616 133.6 92.4257 154.923 97.1287C176.183 101.768 180.879 102.404 180.879 102.404C180.879 102.404 158.033 111.428 148.767 125.664C139.502 139.964 159.619 143.65 171.613 139.646C183.608 135.642 187.098 131.893 187.098 131.893C187.098 131.893 178.975 157.314 186.337 170.407C193.698 183.435 218.448 179.749 225.048 165.767C231.648 151.785 232.409 146.192 232.409 146.192C232.409 146.192 244.023 186.232 264.902 184.706C285.781 183.181 284.639 157.06 282.671 146.192C280.704 135.325 276.896 128.524 276.896 128.524C276.896 128.524 314.402 150.578 330.267 148.671C346.133 146.764 350.766 126.3 336.043 114.86C321.319 103.357 310.912 98.082 310.912 98.082C310.912 98.082 351.527 95.6034 357.746 82.8926C363.965 70.1818 345.371 63.318 328.744 63.0002C312.117 62.6824 304.375 63.318 304.375 63.318C304.375 63.318 336.867 43.1713 334.583 32.5578C332.298 21.9443 320.241 20.4825 300.504 26.6473C280.767 32.812 256.017 50.8614 256.017 50.8614C256.017 50.8614 264.902 21.0545 255.256 13.9365C245.419 6.88196 228.729 18.0039 219.463 47.493Z" fill="#B2FCE4"/>
<path d="M107.221 67.8421C107.258 68.8117 107.093 69.7783 106.736 70.6806C106.467 71.3142 106.043 71.8698 105.503 72.2965C105.001 72.6723 104.429 72.9451 103.822 73.0991C103.208 73.2553 102.61 73.4007 102.033 73.5192L101.888 84.8303C101.861 85.9075 101.797 86.9309 101.705 87.9651C101.613 88.9992 101.554 90.0172 101.527 91.0137C101.484 92.511 101.17 93.5991 100.584 94.2777C99.8797 95.0198 98.9136 95.4583 97.891 95.5004C97.4805 95.5901 97.0528 95.5579 96.6603 95.4076C96.2679 95.2574 95.928 94.9957 95.6824 94.6548C95.1947 93.8631 94.9703 92.9373 95.0414 92.0101C95.0773 90.5738 95.1167 89.2739 95.1598 88.1105C95.2083 86.9525 95.2406 85.8213 95.2729 84.7226C95.3052 83.6238 95.3376 82.4927 95.3807 81.3292C95.4238 80.1658 95.4669 78.8731 95.5046 77.435L95.704 74.3864C95.2042 74.4042 94.7036 74.3862 94.2063 74.3325C93.6688 74.2865 93.1437 74.1461 92.655 73.9178C92.1807 73.6982 91.7723 73.3584 91.47 72.9321C91.1274 72.3841 90.9741 71.7389 91.0337 71.0954C91.0546 70.6993 91.1032 70.3051 91.1791 69.9158C91.2925 69.3466 91.5196 68.8061 91.847 68.3269C92.2616 67.7292 92.7929 67.2216 93.4091 66.8349C94.2812 66.3187 95.2677 66.0263 96.2803 65.9839C96.7705 65.9569 97.3577 65.9031 97.9718 65.8169C98.5859 65.7307 99.2807 65.6445 99.9971 65.5637C100.714 65.4829 101.425 65.4183 102.152 65.3644C102.826 65.3099 103.505 65.3207 104.177 65.3967C104.767 65.4603 105.344 65.6166 105.885 65.86C106.374 66.091 106.781 66.4672 107.049 66.9372V66.9803C107.157 67.2551 107.215 67.5469 107.221 67.8421Z" fill="black"/>
<path d="M109.031 93.5179C108.546 93.2216 108.207 92.4945 108.013 91.331C107.808 89.9794 107.696 88.6153 107.679 87.2483C107.643 85.6863 107.661 84.0237 107.733 82.2606C107.804 80.4975 107.862 78.8529 107.905 77.3268C107.964 75.0646 107.98 73.1256 107.964 71.5043C107.902 70.1283 108.097 68.7527 108.541 67.4485C108.95 66.3578 109.753 65.4602 110.792 64.9331C111.869 64.3406 113.582 63.9474 115.877 63.7427C117.166 63.6001 118.47 63.753 119.691 64.1898C120.763 64.5762 121.729 65.2111 122.508 66.0427C123.267 66.8688 123.828 67.8557 124.151 68.9297C124.5 70.0802 124.619 71.2881 124.501 72.4846C124.368 73.8206 123.99 75.1206 123.386 76.3196C122.685 77.7093 121.754 78.9711 120.634 80.0523C120.794 80.5191 120.991 80.9729 121.221 81.4096C121.49 81.9482 121.76 82.5407 122.11 83.1763C122.46 83.8118 122.751 84.4798 123.068 85.1746C123.386 85.8694 123.666 86.5265 123.893 87.1405C124.108 87.6903 124.258 88.2634 124.34 88.848C124.419 89.2739 124.352 89.7139 124.151 90.0976C123.225 91.5465 122.379 92.3598 121.603 92.5322C120.828 92.7045 120.079 92.4245 119.346 91.6704C118.437 90.6632 117.689 89.5201 117.132 88.2824C116.389 86.7689 115.603 85.0507 114.773 83.1278C114.719 83.1278 114.676 83.3917 114.633 83.8927C114.59 84.3936 114.541 84.9376 114.471 85.5085C114.401 86.2195 114.342 87.0059 114.293 87.8569C114.292 88.974 114.11 90.0835 113.755 91.1425C113.496 91.9159 113.071 92.6235 112.51 93.2162C112.069 93.6816 111.472 93.9675 110.832 94.0192C110.193 94.0709 109.557 93.8847 109.047 93.4963L109.031 93.5179ZM114.471 75.3393C114.471 75.7487 114.665 75.9318 115.085 75.8779C115.573 75.8006 116.033 75.6045 116.427 75.307C116.932 74.9478 117.373 74.5052 117.73 73.9981C118.104 73.5196 118.294 72.924 118.269 72.3176C118.254 71.803 118.074 71.3067 117.757 70.9011C117.495 70.6055 117.146 70.4001 116.761 70.3139C116.365 70.2265 115.957 70.2065 115.554 70.2547L114.477 70.3786L114.471 75.3393Z" fill="black"/>
<path d="M135.248 90.9919C134.282 91.0997 133.237 91.254 132.113 91.4551C131.083 91.6497 130.031 91.695 128.989 91.5898C128.097 91.514 127.258 91.1336 126.613 90.5125C125.993 89.8985 125.703 88.8374 125.746 87.3454C125.746 86.8768 125.746 86.3328 125.746 85.7296C125.746 85.1263 125.746 84.4854 125.778 83.839C125.81 83.1927 125.778 82.5625 125.81 81.9485C125.843 81.3344 125.81 80.7742 125.81 80.2787C125.81 79.6323 125.81 78.8083 125.81 77.7957C125.81 76.783 125.81 75.7004 125.81 74.5316C125.81 73.3628 125.859 72.1778 125.902 70.9874C125.945 69.7971 126.042 68.6875 126.187 67.6641C126.297 66.7843 126.491 65.9169 126.764 65.0734C126.832 64.7961 126.955 64.5353 127.125 64.306C127.295 64.0766 127.509 63.8835 127.755 63.7376C128.46 63.4311 129.192 63.193 129.942 63.0266C130.793 62.8273 131.676 62.6603 132.587 62.531C133.497 62.4018 134.397 62.2941 135.28 62.2241C136.164 62.154 136.929 62.0948 137.607 62.0517C138.146 62.0517 138.755 62.0517 139.406 62.0517C140.021 62.0576 140.631 62.1649 141.211 62.3695C141.756 62.567 142.238 62.9074 142.606 63.3552C143.024 63.9329 143.216 64.6439 143.145 65.3535C143.143 65.8915 143.008 66.4207 142.752 66.8939C142.518 67.3115 142.203 67.6779 141.825 67.9712C141.457 68.262 141.041 68.4879 140.597 68.6391C140.19 68.7826 139.77 68.8819 139.342 68.9353C138.426 69.0358 137.381 69.1759 136.207 69.3554C135.032 69.535 133.858 69.6607 132.684 69.7325L132.296 74.0791C132.765 74.0791 133.303 73.9983 133.912 73.9122C134.521 73.826 135.167 73.7506 135.835 73.6752C136.482 73.5996 137.134 73.569 137.785 73.5836C138.366 73.5919 138.943 73.6826 139.498 73.8529C139.972 73.9957 140.392 74.2771 140.705 74.6609C141.03 75.1175 141.181 75.6754 141.13 76.2336C141.102 77.3504 140.807 78.1368 140.247 78.5928C139.636 79.0761 138.917 79.405 138.151 79.5516C137.236 79.7446 136.306 79.8582 135.372 79.8909C134.38 79.9298 133.395 80.0779 132.436 80.3326L132.404 84.3723C132.98 84.3076 133.621 84.2268 134.321 84.1353C135.022 84.0437 135.749 83.9575 136.476 83.8929C137.203 83.8282 137.92 83.7798 138.631 83.7582C139.277 83.7327 139.923 83.7779 140.559 83.8929H140.597C141.065 84.171 141.461 84.5547 141.755 85.0132C142.059 85.5208 142.2 86.1091 142.159 86.6991C142.137 87.154 142.059 87.6044 141.928 88.0403L141.852 88.0941C141.498 88.6908 141.025 89.208 140.462 89.6131C139.956 89.9576 139.403 90.2262 138.819 90.4102C138.244 90.5924 137.652 90.7187 137.052 90.7872L135.248 90.9919Z" fill="black"/>
<path d="M147.082 89.1657C146.796 89.2146 146.503 89.206 146.22 89.1403C145.937 89.0747 145.67 88.9533 145.434 88.7833C144.995 88.4214 144.67 87.9408 144.497 87.399C144.278 86.7457 144.146 86.0667 144.104 85.3792C144.044 84.6251 144.017 83.8549 144.028 83.0631C144.039 82.2713 144.066 81.5172 144.125 80.7901C144.184 80.0629 144.222 79.4435 144.238 78.9157C144.265 77.7146 144.341 76.4165 144.454 75.0268C144.572 73.6437 144.766 72.2682 145.036 70.9064C145.3 69.566 145.649 68.2437 146.081 66.9475C146.47 65.741 147.013 64.5897 147.697 63.5218C148.311 62.5486 149.102 61.699 150.029 61.0172C150.957 60.348 152.047 59.9373 153.186 59.8269C153.682 59.7734 154.183 59.8275 154.656 59.9855C155.13 60.1436 155.563 60.4018 155.927 60.7425C156.86 61.5891 157.61 62.6174 158.131 63.7642C158.816 65.1879 159.358 66.6765 159.747 68.2079C160.187 69.9114 160.512 71.6424 160.721 73.3894C160.93 75.1321 161.033 76.8859 161.029 78.641C161.033 80.2056 160.905 81.7678 160.646 83.3108C160.47 84.4977 160.091 85.6455 159.526 86.7042C159.347 87.0854 159.076 87.4169 158.739 87.6695C158.402 87.9221 158.008 88.0882 157.592 88.1531C157.307 88.1854 157.016 88.2339 156.73 88.2931C156.454 88.3548 156.172 88.3802 155.89 88.3685C155.625 88.356 155.367 88.2881 155.13 88.1692C154.863 88.0115 154.652 87.7742 154.527 87.4906C154.515 87.4804 154.506 87.4679 154.5 87.454C154.493 87.4402 154.49 87.4251 154.489 87.4098C154.227 86.8763 154.065 86.2995 154.01 85.7077C153.886 84.9052 153.8 84.0434 153.746 83.1277C153.692 82.2121 153.66 81.3395 153.638 80.5046C153.616 79.6698 153.638 79.0557 153.638 78.641C153.635 78.4854 153.585 78.3343 153.494 78.2075C153.404 78.0807 153.278 77.984 153.132 77.93C152.825 77.8329 152.496 77.8329 152.189 77.93C151.855 78.0383 151.551 78.2227 151.3 78.4686C151.171 78.5783 151.07 78.717 151.004 78.8732C150.939 79.0295 150.911 79.1991 150.923 79.3681C150.923 80.1545 150.923 81.0917 150.966 82.169C150.992 83.2104 150.898 84.2514 150.686 85.2714C150.502 86.2101 150.12 87.0988 149.566 87.8784C149.271 88.2611 148.896 88.5746 148.467 88.7969C148.038 89.0193 147.565 89.1452 147.082 89.1657ZM152.351 67.3353C152.141 67.3353 151.957 67.5777 151.785 67.9924C151.604 68.4537 151.468 68.9319 151.381 69.4198C151.273 69.9584 151.187 70.497 151.122 70.9817C151.058 71.4665 151.02 71.8435 151.015 72.059V72.9423C151.457 72.8292 151.898 72.7269 152.329 72.6353C152.76 72.5438 153.185 72.4738 153.606 72.4253C153.638 72.1883 153.66 71.9621 153.681 71.7358C153.703 71.5096 153.713 71.2888 153.719 71.0518C153.724 70.8148 153.719 70.5131 153.687 70.0715C153.658 69.6498 153.591 69.2316 153.487 68.8219C153.396 68.4458 153.254 68.0835 153.067 67.7446C153.008 67.6083 152.906 67.4947 152.777 67.421C152.648 67.3472 152.498 67.3171 152.351 67.3353Z" fill="black"/>
<path d="M178.471 59.7677C178.502 60.7386 178.337 61.7058 177.986 62.6116C177.713 63.2447 177.287 63.8 176.747 64.2275C176.248 64.6042 175.678 64.8771 175.072 65.03C174.452 65.1862 173.86 65.3263 173.283 65.4502L173.138 76.7613C173.105 77.817 173.044 78.8619 172.955 79.896C172.863 80.9302 172.804 81.9482 172.777 82.9446C172.734 84.442 172.42 85.53 171.834 86.2087C171.128 86.9484 170.163 87.3865 169.141 87.4314C168.73 87.5211 168.303 87.4889 167.91 87.3386C167.518 87.1884 167.178 86.9267 166.932 86.5857C166.445 85.7937 166.219 84.8686 166.286 83.9411C166.322 82.5047 166.363 81.2049 166.41 80.0414C166.456 78.878 166.494 77.7487 166.523 76.6535C166.55 75.5763 166.587 74.4236 166.631 73.2602C166.674 72.0968 166.717 70.7987 166.754 69.3659L166.954 66.3119C166.452 66.3317 165.95 66.3155 165.451 66.2635C164.915 66.2169 164.392 66.0765 163.905 65.8487C163.368 65.6144 162.921 65.2134 162.63 64.705C162.339 64.1966 162.219 63.608 162.289 63.0264C162.315 62.6304 162.365 62.2365 162.44 61.8468C162.55 61.2767 162.778 60.7358 163.108 60.2578C163.521 59.6593 164.053 59.1516 164.67 58.7658C165.542 58.2496 166.528 57.9572 167.541 57.9148C168.031 57.8879 168.618 57.834 169.232 57.7425C169.846 57.6509 170.541 57.5755 171.252 57.4947C171.963 57.4139 172.68 57.3439 173.407 57.2954C174.082 57.2408 174.76 57.2516 175.432 57.3277C176.022 57.3912 176.599 57.5476 177.14 57.7909C177.629 58.0205 178.034 58.3972 178.298 58.8682V58.9113C178.406 59.1843 178.464 59.4743 178.471 59.7677Z" fill="black"/>
<path d="M89.1537 130.279C88.7501 130.753 88.2383 131.122 87.6616 131.356C87.0729 131.61 86.4386 131.74 85.7978 131.739C85.2063 131.746 84.624 131.593 84.1118 131.297C83.8627 131.148 83.6482 130.947 83.4829 130.708C83.3175 130.47 83.2049 130.199 83.1528 129.913C82.9717 128.881 82.8496 127.84 82.7866 126.794C82.7274 125.749 82.7005 124.704 82.7167 123.665C82.7328 122.625 82.7542 121.591 82.7811 120.568C82.8081 119.544 82.8081 118.516 82.7811 117.492C82.3286 116.727 81.8116 115.936 81.219 115.122C80.6351 114.316 80.0956 113.478 79.603 112.612C79.1092 111.749 78.6823 110.848 78.3263 109.919C77.9773 109.015 77.8109 108.05 77.8362 107.081C77.7018 106.262 77.8561 105.423 78.2726 104.705C78.6195 104.149 79.1186 103.704 79.7108 103.423C80.2568 103.174 80.8575 103.068 81.456 103.116C81.9677 103.129 82.459 103.32 82.8458 103.655C83.3154 103.996 83.7375 104.398 84.101 104.851C84.4187 105.254 84.7137 105.675 84.9845 106.111C85.2484 106.537 85.5231 106.989 85.7709 107.468C86.0497 107.985 86.3553 108.487 86.6865 108.971C86.9343 108.384 87.1499 107.894 87.333 107.425C87.5162 106.957 87.7048 106.558 87.9149 106.154C88.1249 105.75 88.3566 105.33 88.6313 104.888C88.9061 104.447 89.24 103.957 89.644 103.413C89.9946 102.748 90.5661 102.226 91.26 101.937C91.87 101.674 92.5495 101.619 93.1938 101.781C93.8213 101.95 94.3712 102.33 94.7506 102.858C95.183 103.487 95.3514 104.261 95.2194 105.012C95.1029 105.974 94.86 106.915 94.4973 107.813C94.0933 108.89 93.6248 109.968 93.1023 111.045C92.5797 112.122 92.0519 113.151 91.5186 114.12C90.9853 115.09 90.5381 115.871 90.1879 116.463C90.1017 117.645 90.0749 118.902 90.1072 120.234C90.1341 121.564 90.1449 122.846 90.1395 124.09C90.1385 125.264 90.0683 126.437 89.9294 127.602C89.8443 128.536 89.581 129.445 89.1537 130.279Z" fill="black"/>
<path d="M108.6 127.877C106.409 129.062 104.552 129.623 103.03 129.562C101.647 129.558 100.311 129.064 99.2591 128.167C98.2273 127.208 97.4719 125.99 97.0721 124.639C96.5838 123.114 96.2976 121.531 96.221 119.932C96.1114 118.249 96.1311 116.56 96.2801 114.88C96.431 113.199 96.6753 111.359 97.0129 109.359V109.272C97.1799 108.702 97.363 108.114 97.5516 107.527C97.736 106.934 97.9664 106.356 98.241 105.798C98.5209 105.228 98.8565 104.687 99.2428 104.182C99.6451 103.651 100.125 103.183 100.665 102.793C101.697 102.01 102.863 101.424 104.107 101.064C105.298 100.705 106.556 100.629 107.781 100.843C108.545 101.122 109.26 101.522 109.898 102.028C110.59 102.596 111.179 103.279 111.638 104.048V104.091C112.146 105.263 112.531 106.485 112.785 107.737C113.096 109.204 113.285 110.694 113.35 112.192C113.425 113.781 113.394 115.373 113.259 116.959C113.138 118.495 112.877 120.016 112.478 121.505C112.122 122.835 111.603 124.116 110.932 125.318C110.381 126.353 109.579 127.232 108.6 127.877ZM105.906 120.815C106.094 120.25 106.233 119.67 106.321 119.081C106.461 118.289 106.574 117.427 106.666 116.495C106.757 115.564 106.806 114.616 106.817 113.652C106.84 112.777 106.779 111.902 106.633 111.039C106.545 110.389 106.323 109.763 105.982 109.202C105.858 108.995 105.673 108.831 105.452 108.734C105.23 108.638 104.984 108.613 104.748 108.664C104.477 108.741 104.227 108.877 104.016 109.064C103.806 109.25 103.64 109.482 103.531 109.741C103.188 110.435 102.937 111.17 102.782 111.928C102.606 112.773 102.493 113.63 102.442 114.492C102.401 115.209 102.401 115.929 102.442 116.646C102.502 117.309 102.55 118.074 102.593 118.93C102.623 119.733 102.806 120.523 103.132 121.257C103.275 121.481 103.475 121.662 103.712 121.783C103.949 121.903 104.214 121.958 104.479 121.941C104.937 121.93 105.416 121.542 105.906 120.815Z" fill="black"/>
<path d="M135.932 97.4495C136.711 97.3752 137.494 97.3607 138.275 97.4064C139.193 97.4391 140.101 97.6098 140.968 97.9127C141.785 98.1957 142.524 98.6682 143.123 99.2916C143.431 99.638 143.666 100.043 143.812 100.483C143.958 100.923 144.013 101.388 143.974 101.85C144.023 102.749 143.779 103.639 143.279 104.387C142.876 104.887 142.299 105.218 141.663 105.313C140.958 105.414 140.241 105.399 139.541 105.27C138.776 105.136 138.049 105.017 137.386 104.904C136.795 104.793 136.191 104.764 135.592 104.818C135.364 104.832 135.146 104.918 134.969 105.064C134.793 105.21 134.668 105.409 134.612 105.631C134.386 106.45 134.402 107.048 134.666 107.425C134.965 107.834 135.398 108.128 135.889 108.254C136.532 108.442 137.187 108.586 137.849 108.685C138.609 108.811 139.351 109.03 140.058 109.337C140.806 109.671 141.483 110.147 142.051 110.737C142.73 111.506 143.178 112.451 143.344 113.463C143.705 115.055 143.74 116.704 143.446 118.31C143.188 119.673 142.663 120.971 141.9 122.129C141.22 123.154 140.332 124.024 139.293 124.682C138.387 125.259 137.364 125.627 136.298 125.76C135.663 125.827 135.024 125.856 134.386 125.846C133.635 125.838 132.885 125.769 132.145 125.641C131.39 125.515 130.644 125.335 129.915 125.102C129.238 124.887 128.606 124.549 128.051 124.106C127.496 123.685 127.086 123.103 126.877 122.439C126.667 121.775 126.669 121.063 126.882 120.4C127.039 119.654 127.321 118.94 127.717 118.289C127.954 117.888 128.308 117.569 128.732 117.376C129.156 117.184 129.629 117.126 130.087 117.212C130.571 117.279 131.051 117.371 131.526 117.486L133.039 117.863C133.547 117.995 134.074 118.033 134.596 117.976C134.846 117.943 135.087 117.862 135.307 117.739C135.54 117.615 135.743 117.442 135.905 117.233C136.068 117.023 136.162 116.767 136.174 116.501C136.189 116.194 136.11 115.889 135.948 115.628C135.65 115.357 135.272 115.19 134.871 115.154C134.278 115.036 133.583 114.847 132.797 114.615C131.97 114.349 131.169 114.006 130.405 113.592C129.576 113.133 128.886 112.46 128.407 111.642C127.837 110.619 127.521 109.474 127.485 108.303C127.449 106.539 127.734 104.783 128.326 103.121C128.61 102.005 129.165 100.977 129.942 100.126C130.582 99.4572 131.328 98.8985 132.15 98.4729C132.84 98.1202 133.576 97.8681 134.337 97.7242C134.994 97.5788 135.533 97.4926 135.932 97.4495Z" fill="black"/>
<path d="M154.699 123.972C153.73 124.085 152.69 124.241 151.564 124.44C150.534 124.635 149.482 124.68 148.44 124.575C147.548 124.499 146.709 124.119 146.064 123.498C145.443 122.884 145.154 121.828 145.197 120.331C145.197 119.862 145.197 119.318 145.197 118.715C145.197 118.112 145.197 117.471 145.229 116.824C145.262 116.178 145.256 115.548 145.262 114.934C145.267 114.32 145.262 113.765 145.262 113.264C145.262 112.618 145.262 111.794 145.262 110.781C145.262 109.768 145.262 108.686 145.262 107.517C145.262 106.348 145.31 105.163 145.353 103.973C145.396 102.782 145.493 101.673 145.639 100.649C145.749 99.7714 145.942 98.9058 146.215 98.0641C146.281 97.7851 146.403 97.5224 146.573 97.2918C146.743 97.0613 146.959 96.8677 147.206 96.7229C147.911 96.4164 148.643 96.1783 149.393 96.012C150.244 95.8127 151.128 95.6457 152.038 95.5164C152.949 95.3872 153.848 95.2794 154.732 95.2094C155.615 95.1394 156.38 95.0801 157.059 95.037C157.597 95.037 158.206 95.037 158.858 95.037C159.473 95.0429 160.082 95.1503 160.662 95.3548C161.207 95.5523 161.689 95.8928 162.058 96.3405C162.474 96.921 162.666 97.6331 162.596 98.3442C162.595 98.8806 162.459 99.4081 162.203 99.8793C161.969 100.297 161.654 100.663 161.276 100.957C160.908 101.247 160.492 101.473 160.048 101.624C159.642 101.768 159.221 101.867 158.793 101.921C157.877 102.021 156.832 102.161 155.658 102.341C154.484 102.52 153.309 102.646 152.135 102.718L151.747 107.059C152.216 107.059 152.755 106.984 153.363 106.898C153.972 106.811 154.618 106.736 155.281 106.661C155.93 106.585 156.583 106.555 157.236 106.569C157.817 106.577 158.394 106.668 158.949 106.838C159.423 106.981 159.843 107.262 160.156 107.646C160.481 108.103 160.632 108.661 160.581 109.219C160.549 110.334 160.258 111.12 159.698 111.578C159.086 112.062 158.368 112.392 157.603 112.542C156.687 112.731 155.757 112.843 154.823 112.876C153.831 112.915 152.847 113.063 151.887 113.318L151.855 117.358C152.426 117.293 153.067 117.212 153.773 117.121C154.478 117.029 155.195 116.943 155.927 116.878C156.66 116.814 157.366 116.765 158.055 116.744C158.703 116.721 159.351 116.766 159.989 116.878H160.027C160.495 117.156 160.891 117.54 161.185 117.999C161.488 118.506 161.629 119.094 161.589 119.684C161.567 120.139 161.489 120.59 161.357 121.026L161.282 121.079C160.928 121.676 160.455 122.193 159.892 122.598C159.394 122.94 158.85 123.208 158.276 123.396C157.701 123.578 157.109 123.704 156.509 123.773L154.699 123.972Z" fill="black"/>
<path d="M177.765 118.117C177.778 118.558 177.698 118.998 177.529 119.407C177.36 119.815 177.106 120.183 176.784 120.487C176.14 121.051 175.376 121.46 174.549 121.682C173.67 121.929 172.767 122.082 171.856 122.14C170.929 122.199 170.153 122.269 169.529 122.339C168.655 122.462 167.768 122.462 166.895 122.339C166.244 122.246 165.638 121.955 165.16 121.505C164.675 120.993 164.346 120.354 164.212 119.662C164.012 118.674 163.934 117.664 163.98 116.657C164.05 114.168 164.094 111.675 164.126 109.186C164.158 106.698 164.201 104.22 164.266 101.753C164.266 100.994 164.266 100.137 164.266 99.184C164.263 98.2794 164.354 97.377 164.535 96.4908C164.693 95.6791 165.042 94.9166 165.553 94.2663C165.837 93.927 166.188 93.6496 166.584 93.4513C166.979 93.253 167.411 93.1381 167.853 93.1137C170.148 92.8551 171.263 93.988 171.198 96.5124C171.159 97.8913 171.116 99.1965 171.069 100.428C171.026 101.667 170.972 102.884 170.913 104.091C170.854 105.297 170.805 106.52 170.757 107.77C170.708 109.019 170.671 110.333 170.633 111.712C170.61 112.136 170.61 112.56 170.633 112.983C170.647 113.275 170.734 113.559 170.886 113.808C171.031 114.018 171.25 114.167 171.5 114.222C171.855 114.296 172.219 114.307 172.577 114.255C172.971 114.206 173.262 114.168 173.461 114.131L174 114.028L174.538 113.921C174.748 113.883 175.045 113.84 175.438 113.797C175.845 113.733 176.261 113.828 176.601 114.061C176.924 114.312 177.172 114.648 177.318 115.03C177.5 115.489 177.618 115.971 177.668 116.463C177.742 117.011 177.774 117.564 177.765 118.117Z" fill="black"/>
<path d="M182.963 120.729C182.218 120.881 181.443 120.775 180.766 120.427C180.283 120.106 179.94 119.613 179.807 119.049C179.634 118.344 179.568 117.618 179.613 116.894C179.65 116.075 179.677 115.224 179.699 114.341C179.749 112.582 179.749 110.82 179.699 109.057C179.656 107.29 179.656 105.605 179.699 103.989C179.699 103.315 179.699 102.567 179.699 101.748C179.699 100.929 179.672 100.1 179.672 99.2542C179.672 98.4086 179.704 97.5683 179.774 96.7388C179.837 95.9869 179.975 95.2433 180.189 94.5197C180.361 93.9313 180.646 93.3824 181.029 92.9038C181.396 92.4656 181.912 92.1795 182.478 92.1013C182.999 91.8892 183.541 91.7322 184.094 91.6327C184.865 91.4711 185.711 91.3364 186.545 91.2233C187.38 91.1102 188.226 91.0078 189.012 90.9217L190.731 90.7278C191.51 90.6309 192.295 90.5859 193.08 90.5931C193.674 90.5733 194.263 90.7108 194.787 90.9917C195.013 91.1367 195.205 91.3287 195.35 91.5546C195.495 91.7804 195.59 92.0348 195.627 92.3005C195.735 93.1715 195.652 94.0553 195.385 94.8913C195.286 95.2761 195.111 95.6374 194.872 95.9545C194.633 96.2716 194.333 96.5381 193.99 96.7388C193.261 97.1655 192.468 97.4711 191.641 97.6437C190.802 97.8245 189.95 97.9415 189.093 97.9938C188.258 98.0477 187.623 98.0961 187.176 98.15L187.068 102.152C187.725 101.99 188.49 101.834 189.368 101.673C190.172 101.52 190.994 101.486 191.808 101.57C192.514 101.642 193.181 101.928 193.721 102.389C194.259 102.841 194.485 103.595 194.459 104.651C194.466 105.227 194.294 105.792 193.968 106.267C193.658 106.685 193.254 107.024 192.789 107.258C192.279 107.515 191.734 107.696 191.173 107.797C190.569 107.91 189.971 108.007 189.368 108.088L187.666 108.325C187.2 108.383 186.744 108.501 186.308 108.675C186.175 110.768 186.109 112.553 186.109 114.029C186.124 115.248 186.052 116.466 185.894 117.675C185.815 118.459 185.518 119.206 185.037 119.83C184.479 120.373 183.741 120.694 182.963 120.729Z" fill="black"/>
<path d="M248.289 215L248.842 181.052C247.489 175.342 245.09 164.967 242.569 153.488C238.817 136.114 245.46 122.24 245.46 122.24C245.46 122.24 282.545 87.6781 284.943 81.4777C287.28 75.2774 281.684 72.2079 288.08 76.0754C288.08 76.0754 310.405 109.655 308.744 124.389C307.391 136.36 295.768 169.265 293.677 181.665C292.57 188.173 293.492 215 293.492 215" fill="#FFB600"/>
<path d="M277.415 136.637L233.266 116.77C228.422 114.563 226.214 108.86 228.422 104.016L271.958 7.2563C274.165 2.41219 279.867 0.204728 284.712 2.41217L328.86 22.2792C333.705 24.4866 335.912 30.1892 333.704 35.0333L290.169 131.793C287.961 136.698 282.259 138.845 277.415 136.637Z" fill="white"/>
<path d="M281.339 139.09C279.806 139.09 278.273 138.783 276.74 138.109L232.591 118.242C229.832 117.015 227.747 114.808 226.705 111.987C225.662 109.167 225.724 106.162 226.95 103.403L270.486 6.64308C271.712 3.88377 273.92 1.79898 276.74 0.756576C279.561 -0.347146 282.565 -0.224495 285.325 1.00186L329.474 20.8688C332.233 22.0952 334.318 24.3027 335.36 27.1233C336.403 29.9439 336.341 32.9485 335.115 35.7078L291.579 132.467C289.678 136.637 285.631 139.09 281.339 139.09ZM278.028 135.227C279.99 136.146 282.198 136.208 284.221 135.411C286.245 134.675 287.839 133.142 288.759 131.18L332.294 34.4201C333.214 32.458 333.275 30.2504 332.478 28.227C331.681 26.2035 330.209 24.6092 328.247 23.7508L284.098 3.88377C282.136 3.02532 279.929 2.96398 277.905 3.69979C275.882 4.43561 274.288 5.96857 273.368 7.93074L229.832 104.69C228.974 106.653 228.912 108.86 229.648 110.884C230.445 112.907 231.917 114.501 233.879 115.36L278.028 135.227Z" fill="black"/>
<path d="M275.392 130.873L236.026 113.152C232.776 111.68 231.366 107.879 232.776 104.629L275.269 10.1994C276.802 6.70425 280.91 5.17124 284.405 6.76551L324.937 25.0383C328.432 26.6325 330.026 30.7408 328.432 34.2973L286.92 126.519C284.957 130.873 279.745 132.835 275.392 130.873Z" fill="black"/>
<path d="M281.856 54.7962C281.923 55.0058 281.994 55.2134 282.056 55.4249C282.103 55.5636 282.113 55.7139 282.086 55.8609C282.059 56.0079 281.996 56.1466 281.903 56.2632C281.81 56.3798 281.689 56.4704 281.554 56.5259C281.419 56.5815 281.274 56.6001 281.132 56.5799C280.341 56.4795 279.555 56.3423 278.78 56.171C278.668 56.1395 278.564 56.0849 278.475 56.0103C278.385 55.9357 278.312 55.8427 278.259 55.7367C277.117 53.1687 278.251 50.937 279.851 49.8506C280.786 49.2082 281.914 48.9634 282.991 49.1693C286.21 49.7163 289.439 50.2516 292.658 50.8257C293.386 50.9607 294.06 51.292 294.613 51.7867C295.166 52.2814 295.579 52.9223 295.81 53.6458C296.042 54.3693 296.084 55.1502 295.933 55.9111C295.782 56.6719 295.443 57.3863 294.949 57.9832C294.072 59.0652 293.165 60.1223 292.275 61.191C290.958 62.7626 289.666 64.3373 288.327 65.9072C287.889 66.4228 287.346 66.8319 286.74 67.1031C286.134 67.3742 285.482 67.5001 284.832 67.4712C284.183 67.4423 283.555 67.2592 282.996 66.9361C282.436 66.6131 281.961 66.1586 281.606 65.6076C281.341 65.135 281.125 64.6329 280.963 64.1096C280.665 63.2892 279.971 63.1537 279.399 63.8426C277.428 66.182 275.474 68.5208 273.536 70.859C273.013 71.4842 273.252 72.2119 274.025 72.3436C276.907 72.8384 279.784 73.3314 282.657 73.8226C283.433 73.9557 283.928 73.3689 283.693 72.5998C283.576 72.2271 283.445 71.86 283.332 71.4855C283.269 71.3358 283.249 71.1689 283.274 71.0043C283.3 70.8397 283.37 70.6842 283.476 70.5561C283.582 70.428 283.721 70.3324 283.875 70.2807C284.028 70.229 284.192 70.2233 284.345 70.2642C285.042 70.3694 285.759 70.4685 286.451 70.6343C286.724 70.6929 286.96 70.8594 287.111 71.0988C287.738 72.5503 287.771 74.0244 286.93 75.4783C286.48 76.264 285.812 76.8966 285.018 77.2903C284.223 77.684 283.34 77.8199 282.488 77.6795C279.243 77.1405 275.994 76.6002 272.751 76.0231C272.012 75.8931 271.327 75.5615 270.766 75.062C270.204 74.5624 269.786 73.9128 269.554 73.1789C269.322 72.4451 269.284 71.6533 269.445 70.8839C269.605 70.1146 269.958 69.395 270.467 68.7985C272.628 66.2147 274.787 63.629 276.944 61.0412C277.442 60.4223 278.085 59.946 278.807 59.6618C279.53 59.3775 280.305 59.2956 281.053 59.4244C281.801 59.5533 282.494 59.8883 283.061 60.3947C283.628 60.9012 284.048 61.5606 284.278 62.3048L284.425 62.7612C284.688 63.5427 285.406 63.6734 285.942 63.0425C286.814 62.0052 287.68 60.9651 288.551 59.9232C289.614 58.6462 290.693 57.3523 291.739 56.0828C292.364 55.335 292.14 54.6491 291.219 54.4909L282.712 53.04C281.866 52.8957 281.401 53.4837 281.661 54.3225C281.746 54.4737 281.801 54.635 281.856 54.7962Z" fill="#B2FCE4"/>
<path d="M285.754 93.3749C283.807 88.6723 277.661 86.1684 273.401 89.3442C269.628 92.0924 268.168 98.1996 269.202 103.574C270.967 112.735 275.227 126.904 269.081 134.538C262.935 142.172 263.117 146.813 263.117 146.813L297.985 134.476C297.985 134.476 290.561 102.78 285.754 93.3749Z" fill="#FFB600"/>
<path d="M262.654 162.697C261.98 162.697 261.307 162.21 261.124 161.539C261.001 161.112 258.431 150.504 263.816 142.7C269.997 133.799 268.773 128.251 268.773 128.19C268.59 127.336 269.079 126.544 269.936 126.3C270.732 126.178 271.588 126.605 271.833 127.458C271.894 127.702 273.485 134.348 266.386 144.468C261.797 151.053 264.122 160.685 264.122 160.807C264.306 161.661 263.816 162.454 262.96 162.697C262.898 162.697 262.776 162.697 262.654 162.697Z" fill="black"/>
<path d="M276.349 106.908C275.615 106.908 275.004 106.417 274.82 105.68L273.475 99.6013C272.925 97.0837 273.169 94.9346 274.209 93.2767C275.554 91.2504 277.571 90.7592 277.816 90.6978C278.061 90.6364 278.305 90.6364 278.55 90.6364C280.567 90.6364 282.218 91.3118 283.563 92.6627C287.048 96.1627 286.742 103.163 286.742 103.408C286.681 104.084 286.192 104.698 285.52 104.821L276.715 106.785C276.532 106.847 276.471 106.908 276.349 106.908ZM278.366 93.768C277.694 93.9522 275.615 94.9347 276.532 98.8645L277.572 103.408L283.624 102.057C283.563 99.9697 283.074 96.5925 281.362 94.8118C280.567 94.1364 279.528 93.768 278.366 93.768Z" fill="black"/>
<path d="M295.971 125.117C295.408 125.117 294.969 124.751 294.781 124.262L285.635 92.5379C285.447 91.9267 285.823 91.2543 286.512 91.0709C287.201 90.8875 287.828 91.2543 288.016 91.9267L297.162 123.65C297.35 124.262 296.974 124.934 296.285 125.117C296.222 125.117 296.097 125.117 295.971 125.117Z" fill="black"/>
</svg>
